<svg width="64" height="64" viewBox="0 0 64 64" fill="none" xmlns="http://www.w3.org/2000/svg">
<rect width="64" height="64" fill="#1976D2"/>
<mask id="mask0_24_27" style="mask-type:alpha" maskUnits="userSpaceOnUse" x="9" y="20" width="46" height="24">
<rect x="9.625" y="20.5625" width="44.6875" height="22.875" fill="#D9D9D9"/>
</mask>
<g mask="url(#mask0_24_27)">
<path d="M20.2031 36.3281V20.5625H24.875V36.3281C24.875 37.849 24.5417 39.1562 23.875 40.25C23.2083 41.3333 22.2969 42.1667 21.1406 42.75C19.9948 43.3333 18.7031 43.625 17.2656 43.625C15.776 43.625 14.4583 43.375 13.3125 42.875C12.1667 42.375 11.2656 41.6094 10.6094 40.5781C9.95312 39.5365 9.625 38.2188 9.625 36.625H14.3281C14.3281 37.4583 14.4427 38.1198 14.6719 38.6094C14.9115 39.099 15.25 39.4479 15.6875 39.6562C16.125 39.8646 16.651 39.9688 17.2656 39.9688C17.8594 39.9688 18.375 39.8281 18.8125 39.5469C19.25 39.2656 19.5885 38.8542 19.8281 38.3125C20.0781 37.7708 20.2031 37.1094 20.2031 36.3281Z" fill="white"/>
<path d="M34.3594 39.7031L38.8906 20.5625H41.4219L42 23.75L37.1719 43.3125H34.4531L34.3594 39.7031ZM32.0312 20.5625L35.7812 39.7031L35.4688 43.3125H32.4375L27.3906 20.5625H32.0312ZM45.9844 39.625L49.6875 20.5625H54.3281L49.2969 43.3125H46.2656L45.9844 39.625ZM42.8438 20.5625L47.4062 39.7812L47.2812 43.3125H44.5625L39.7031 23.7344L40.3281 20.5625H42.8438Z" fill="white"/>
<path d="M17.9219 60.8359V62.0625H10.2188V60.8359H17.9219ZM17.6719 51.7812L10.5781 62.0625H9.64844V60.9375L16.7344 50.6875H17.6719V51.7812ZM17.0312 50.6875V51.9219H9.75V50.6875H17.0312Z" fill="white"/>
<path d="M21.2344 50.0625V62.0625H19.7812V50.0625H21.2344Z" fill="white"/>
<path d="M23.1719 57.9297V57.75C23.1719 57.1406 23.2604 56.5755 23.4375 56.0547C23.6146 55.5286 23.8698 55.0729 24.2031 54.6875C24.5365 54.2969 24.9401 53.9948 25.4141 53.7812C25.888 53.5625 26.4193 53.4531 27.0078 53.4531C27.6016 53.4531 28.1354 53.5625 28.6094 53.7812C29.0885 53.9948 29.4948 54.2969 29.8281 54.6875C30.1667 55.0729 30.4245 55.5286 30.6016 56.0547C30.7786 56.5755 30.8672 57.1406 30.8672 57.75V57.9297C30.8672 58.5391 30.7786 59.1042 30.6016 59.625C30.4245 60.1458 30.1667 60.6016 29.8281 60.9922C29.4948 61.3776 29.0911 61.6797 28.6172 61.8984C28.1484 62.112 27.6172 62.2188 27.0234 62.2188C26.4297 62.2188 25.8958 62.112 25.4219 61.8984C24.9479 61.6797 24.5417 61.3776 24.2031 60.9922C23.8698 60.6016 23.6146 60.1458 23.4375 59.625C23.2604 59.1042 23.1719 58.5391 23.1719 57.9297ZM24.6172 57.75V57.9297C24.6172 58.3516 24.6667 58.75 24.7656 59.125C24.8646 59.4948 25.013 59.8229 25.2109 60.1094C25.4141 60.3958 25.6667 60.6224 25.9688 60.7891C26.2708 60.9505 26.6224 61.0312 27.0234 61.0312C27.4193 61.0312 27.7656 60.9505 28.0625 60.7891C28.3646 60.6224 28.6146 60.3958 28.8125 60.1094C29.0104 59.8229 29.1589 59.4948 29.2578 59.125C29.362 58.75 29.4141 58.3516 29.4141 57.9297V57.75C29.4141 57.3333 29.362 56.9401 29.2578 56.5703C29.1589 56.1953 29.0078 55.8646 28.8047 55.5781C28.6068 55.2865 28.3568 55.0573 28.0547 54.8906C27.7578 54.724 27.4089 54.6406 27.0078 54.6406C26.612 54.6406 26.263 54.724 25.9609 54.8906C25.6641 55.0573 25.4141 55.2865 25.2109 55.5781C25.013 55.8646 24.8646 56.1953 24.7656 56.5703C24.6667 56.9401 24.6172 57.3333 24.6172 57.75Z" fill="white"/>
<path d="M32.6719 50.0625H34.125V60.4219L34 62.0625H32.6719V50.0625ZM39.8359 57.7656V57.9297C39.8359 58.5443 39.763 59.1146 39.6172 59.6406C39.4714 60.1615 39.2578 60.6146 38.9766 61C38.6953 61.3854 38.3516 61.6849 37.9453 61.8984C37.5391 62.112 37.0729 62.2188 36.5469 62.2188C36.0104 62.2188 35.5391 62.1276 35.1328 61.9453C34.7318 61.7578 34.3932 61.4896 34.1172 61.1406C33.8411 60.7917 33.6198 60.3698 33.4531 59.875C33.2917 59.3802 33.1797 58.8229 33.1172 58.2031V57.4844C33.1797 56.8594 33.2917 56.2995 33.4531 55.8047C33.6198 55.3099 33.8411 54.888 34.1172 54.5391C34.3932 54.1849 34.7318 53.9167 35.1328 53.7344C35.5339 53.5469 36 53.4531 36.5312 53.4531C37.0625 53.4531 37.5339 53.5573 37.9453 53.7656C38.3568 53.9688 38.7005 54.2604 38.9766 54.6406C39.2578 55.0208 39.4714 55.4766 39.6172 56.0078C39.763 56.5339 39.8359 57.1198 39.8359 57.7656ZM38.3828 57.9297V57.7656C38.3828 57.3438 38.3438 56.9479 38.2656 56.5781C38.1875 56.2031 38.0625 55.875 37.8906 55.5938C37.7188 55.3073 37.4922 55.0833 37.2109 54.9219C36.9297 54.7552 36.5833 54.6719 36.1719 54.6719C35.8073 54.6719 35.4896 54.7344 35.2188 54.8594C34.9531 54.9844 34.7266 55.1536 34.5391 55.3672C34.3516 55.5755 34.1979 55.8151 34.0781 56.0859C33.9635 56.3516 33.8776 56.6276 33.8203 56.9141V58.7969C33.9036 59.1615 34.0391 59.513 34.2266 59.8516C34.4193 60.1849 34.6745 60.4583 34.9922 60.6719C35.3151 60.8854 35.7135 60.9922 36.1875 60.9922C36.5781 60.9922 36.9115 60.9141 37.1875 60.7578C37.4688 60.5964 37.6953 60.375 37.8672 60.0938C38.0443 59.8125 38.1745 59.487 38.2578 59.1172C38.3411 58.7474 38.3828 58.3516 38.3828 57.9297Z" fill="white"/>
<path d="M43.2344 53.6094V62.0625H41.7812V53.6094H43.2344ZM41.6719 51.3672C41.6719 51.1328 41.7422 50.9349 41.8828 50.7734C42.0286 50.612 42.2422 50.5312 42.5234 50.5312C42.7995 50.5312 43.0104 50.612 43.1562 50.7734C43.3073 50.9349 43.3828 51.1328 43.3828 51.3672C43.3828 51.5911 43.3073 51.7839 43.1562 51.9453C43.0104 52.1016 42.7995 52.1797 42.5234 52.1797C42.2422 52.1797 42.0286 52.1016 41.8828 51.9453C41.7422 51.7839 41.6719 51.5911 41.6719 51.3672Z" fill="white"/>
<path d="M47 55.4141V62.0625H45.5547V53.6094H46.9219L47 55.4141ZM46.6562 57.5156L46.0547 57.4922C46.0599 56.9141 46.1458 56.3802 46.3125 55.8906C46.4792 55.3958 46.7135 54.9661 47.0156 54.6016C47.3177 54.237 47.6771 53.9557 48.0938 53.7578C48.5156 53.5547 48.9818 53.4531 49.4922 53.4531C49.9089 53.4531 50.2839 53.5104 50.6172 53.625C50.9505 53.7344 51.2344 53.9115 51.4688 54.1562C51.7083 54.401 51.8906 54.7188 52.0156 55.1094C52.1406 55.4948 52.2031 55.9661 52.2031 56.5234V62.0625H50.75V56.5078C50.75 56.0651 50.6849 55.7109 50.5547 55.4453C50.4245 55.1745 50.2344 54.9792 49.9844 54.8594C49.7344 54.7344 49.4271 54.6719 49.0625 54.6719C48.7031 54.6719 48.375 54.7474 48.0781 54.8984C47.7865 55.0495 47.5339 55.2578 47.3203 55.5234C47.112 55.7891 46.9479 56.0938 46.8281 56.4375C46.7135 56.776 46.6562 57.1354 46.6562 57.5156Z" fill="white"/>
</g>
</svg>
